<svg xmlns="http://www.w3.org/2000/svg" viewBox="0 0 900 1120" role="img" aria-labelledby="title desc">
  <title id="title">Speaker portrait placeholder</title>
  <desc id="desc">An editorial abstract portrait in the warm orange and brown HAA Lab palette.</desc>
  <defs>
    <linearGradient id="bg" x1="0" y1="0" x2="1" y2="1">
      <stop offset="0" stop-color="#f7bd59"/>
      <stop offset=".52" stop-color="#d96f1e"/>
      <stop offset="1" stop-color="#73320f"/>
    </linearGradient>
    <linearGradient id="shirt" x1="0" y1="0" x2="0" y2="1">
      <stop offset="0" stop-color="#4d2916"/>
      <stop offset="1" stop-color="#1f130c"/>
    </linearGradient>
    <filter id="grain" x="-20%" y="-20%" width="140%" height="140%">
      <feTurbulence baseFrequency=".75" numOctaves="4" seed="8" type="fractalNoise" result="noise"/>
      <feColorMatrix in="noise" values="1 0 0 0 0 0 1 0 0 0 0 0 1 0 0 0 0 0 .14 0"/>
    </filter>
  </defs>
  <rect width="900" height="1120" fill="url(#bg)"/>
  <circle cx="720" cy="220" r="310" fill="#ffd88c" opacity=".45"/>
  <circle cx="118" cy="910" r="270" fill="#8f3f12" opacity=".36"/>
  <path d="M0 250 900 40v155L0 405Z" fill="#fff4db" opacity=".16"/>
  <g fill="none" stroke="#ffe6b1" opacity=".48">
    <circle cx="735" cy="218" r="95" stroke-width="2"/>
    <circle cx="735" cy="218" r="145" stroke-width="1.5"/>
    <circle cx="735" cy="218" r="205" stroke-width="1"/>
    <path d="M520 218h430M735 2v432" stroke-width="1"/>
  </g>
  <g transform="translate(0 10)">
    <path d="M155 1120c20-236 115-372 291-392 183-20 303 116 329 392Z" fill="url(#shirt)"/>
    <path d="M354 685h187v162H354z" fill="#b75b24"/>
    <ellipse cx="447" cy="476" rx="195" ry="247" fill="#e99855"/>
    <path d="M266 463c-7-161 52-272 182-278 113-5 202 74 211 216-70-22-126-75-170-145-34 89-110 155-223 207Z" fill="#392014"/>
    <path d="M278 423c-38 3-53 42-31 90 11 25 29 39 50 39l-10-122Z" fill="#d8793d"/>
    <path d="M642 423c38 3 53 42 31 90-11 25-29 39-50 39l10-122Z" fill="#d8793d"/>
    <path d="M363 479c22-15 47-15 69 0M493 479c22-15 47-15 69 0" fill="none" stroke="#4a2517" stroke-width="12" stroke-linecap="round"/>
    <path d="M432 603c31 22 63 22 95 0" fill="none" stroke="#7b321f" stroke-width="11" stroke-linecap="round"/>
    <path d="m450 510-16 67h43" fill="none" stroke="#b85c2e" stroke-width="8" stroke-linecap="round" stroke-linejoin="round"/>
    <path d="M353 741c46 57 142 71 194 2l69 55c-79 115-258 114-339-2Z" fill="#fff0d2"/>
  </g>
  <rect width="900" height="1120" filter="url(#grain)" opacity=".35"/>
  <g transform="translate(52 1000)">
    <rect width="240" height="58" rx="29" fill="#fff7e8" opacity=".93"/>
    <text x="120" y="38" text-anchor="middle" font-family="Arial, sans-serif" font-size="20" font-weight="700" letter-spacing="3" fill="#5f2a12">YOUR PHOTO</text>
  </g>
</svg>
